<?xml version="1.0" encoding="UTF-8" standalone="no"?>
<svg
   xmlns:dc="http://purl.org/dc/elements/1.1/"
   xmlns:cc="http://creativecommons.org/ns#"
   xmlns:rdf="http://www.w3.org/1999/02/22-rdf-syntax-ns#"
   xmlns:svg="http://www.w3.org/2000/svg"
   xmlns="http://www.w3.org/2000/svg"
   xmlns:sodipodi="http://sodipodi.sourceforge.net/DTD/sodipodi-0.dtd"
   xmlns:inkscape="http://www.inkscape.org/namespaces/inkscape"
   width="280.000mm"
   height="122.000mm"
   version="1.1"
   viewBox="0 0 280.000 122.000"
   id="svg3533"
   inkscape:version="0.91 r13725"
   sodipodi:docname="base_plate.svg">
  <metadata
     id="metadata3673">
    <rdf:RDF>
      <cc:Work
         rdf:about="">
        <dc:format>image/svg+xml</dc:format>
        <dc:type
           rdf:resource="http://purl.org/dc/dcmitype/StillImage" />
      </cc:Work>
    </rdf:RDF>
  </metadata>
  <sodipodi:namedview
     pagecolor="#ffffff"
     bordercolor="#666666"
     borderopacity="1"
     objecttolerance="10"
     gridtolerance="10"
     guidetolerance="10"
     inkscape:pageopacity="0"
     inkscape:pageshadow="2"
     inkscape:window-width="1440"
     inkscape:window-height="856"
     id="namedview3671"
     showgrid="false"
     inkscape:zoom="0.52313555"
     inkscape:cx="130.93392"
     inkscape:cy="315.95956"
     inkscape:window-x="0"
     inkscape:window-y="1"
     inkscape:window-maximized="1"
     inkscape:current-layer="svg3533" />
  <desc
     id="desc3535">Ce schéma a été créé avec le Designer de Face Avant en exportant le fichier 'base_plate'.</desc>
  <defs
     id="defs3537">
    <pattern
       id="revside-fill"
       x="1"
       y="1"
       width="1.5"
       height="1.5"
       patternUnits="userSpaceOnUse">
      <line
         x1="0"
         y1="0"
         x2="1"
         y2="1"
         style="stroke-width:0.2; stroke:black; stroke-dasharray:none;"
         id="line3540" />
      <line
         x1="0"
         y1="1"
         x2="1"
         y2="0"
         style="stroke-width:0.2; stroke:black; stroke-dasharray:none;"
         id="line3542" />
    </pattern>
    <pattern
       id="revside-fill-e0e0e0"
       x="1"
       y="1"
       width="1.5"
       height="1.5"
       patternUnits="userSpaceOnUse">
      <line
         x1="0"
         y1="0"
         x2="1.5"
         y2="1.5"
         style="stroke-width:0.2; stroke:#e0e0e0; stroke-dasharray:none;"
         id="line3545" />
      <line
         x1="0"
         y1="1.5"
         x2="1.5"
         y2="0"
         style="stroke-width:0.2; stroke:#e0e0e0; stroke-dasharray:none;"
         id="line3547" />
    </pattern>
  </defs>
  <path
     style="fill:none;fill-rule:evenodd;stroke:#00ff00;stroke-width:0.01;stroke-linecap:round;stroke-linejoin:round;stroke-opacity:1;stroke-miterlimit:4;stroke-dasharray:none"
     inkscape:connector-curvature="0"
     id="path3551"
     vector-effect="non-scaling-stroke"
     d="M 280,0 0,0 l 0,0 0,122 0,0 280,0 0,0 0,-122 0,0 z" />
  <path
     style="fill:none;fill-rule:evenodd;stroke:#ff0000;stroke-width:0.00987778;stroke-linecap:round;stroke-linejoin:round;stroke-opacity:1;stroke-miterlimit:4;stroke-dasharray:none"
     inkscape:connector-curvature="0"
     id="path3553"
     vector-effect="non-scaling-stroke"
     d="m 258.21469,27.695527 a 0.50000002,0.49999998 0 0 1 0.25878,0.96578 l -6.093,10.553386 a 0.50000002,0.49999998 0 0 1 -0.96578,0.25878 l -10.55338,-6.093 a 0.50000002,0.49999998 0 0 1 -0.25878,-0.96578 l 6.093,-10.553386 a 0.50000002,0.49999998 0 0 1 0.96578,-0.25878 l 10.55338,6.093 z" />
  <path
     style="fill:none;fill-rule:evenodd;stroke:#ff0000;stroke-width:0.00987778;stroke-linecap:round;stroke-linejoin:round;stroke-opacity:1;stroke-miterlimit:4;stroke-dasharray:none"
     inkscape:connector-curvature="0"
     id="path3555"
     vector-effect="non-scaling-stroke"
     d="m 274.71169,37.220527 a 0.50000002,0.49999998 0 0 1 0.25878,0.96578 l -6.093,10.553386 a 0.50000002,0.49999998 0 0 1 -0.96578,0.25878 l -10.55338,-6.093 a 0.50000002,0.49999998 0 0 1 -0.25878,-0.96578 l 6.093,-10.553386 a 0.50000002,0.49999998 0 0 1 0.96578,-0.25878 l 10.55338,6.093 z" />
  <path
     style="fill:none;fill-rule:evenodd;stroke:#ff0000;stroke-width:0.00987778;stroke-linecap:round;stroke-linejoin:round;stroke-opacity:1;stroke-miterlimit:4;stroke-dasharray:none"
     inkscape:connector-curvature="0"
     id="path3557"
     vector-effect="non-scaling-stroke"
     d="m 248.68969,44.193527 a 0.50000002,0.49999998 0 0 1 0.25878,0.96578 l -6.093,10.553386 a 0.50000002,0.49999998 0 0 1 -0.96578,0.25878 l -10.55338,-6.093 a 0.50000002,0.49999998 0 0 1 -0.25878,-0.96578 l 6.093,-10.553386 a 0.50000002,0.49999998 0 0 1 0.96578,-0.25878 l 10.55338,6.093 z" />
  <path
     style="fill:none;fill-rule:evenodd;stroke:#ff0000;stroke-width:0.00987778;stroke-linecap:round;stroke-linejoin:round;stroke-opacity:1;stroke-miterlimit:4;stroke-dasharray:none"
     inkscape:connector-curvature="0"
     id="path3559"
     vector-effect="non-scaling-stroke"
     d="m 247.41269,65.453527 a 0.50000002,0.49999998 0 0 1 0.25878,0.96578 l -6.093,10.553386 a 0.50000002,0.49999998 0 0 1 -0.96578,0.25878 l -10.55338,-6.093 a 0.50000002,0.49999998 0 0 1 -0.25878,-0.96578 l 6.093,-10.553386 a 0.50000002,0.49999998 0 0 1 0.96578,-0.25878 l 10.55338,6.093 z" />
  <path
     style="fill:none;fill-rule:evenodd;stroke:#ff0000;stroke-width:0.00987778;stroke-linecap:round;stroke-linejoin:round;stroke-opacity:1;stroke-miterlimit:4;stroke-dasharray:none"
     inkscape:connector-curvature="0"
     id="path3561"
     vector-effect="non-scaling-stroke"
     d="m 32.339693,21.602527 a 0.49999998,0.50000002 0 0 1 0.96578,0.25878 l 6.093,10.553386 a 0.49999998,0.50000002 0 0 1 -0.25878,0.96578 l -10.553386,6.093 a 0.49999998,0.50000002 0 0 1 -0.96578,-0.25878 l -6.093,-10.553386 a 0.49999998,0.50000002 0 0 1 0.25878,-0.96578 l 10.553386,-6.093 z" />
  <path
     style="fill:none;fill-rule:evenodd;stroke:#ff0000;stroke-width:0.00987778;stroke-linecap:round;stroke-linejoin:round;stroke-opacity:1;stroke-miterlimit:4;stroke-dasharray:none"
     inkscape:connector-curvature="0"
     id="path3563"
     vector-effect="non-scaling-stroke"
     d="m 15.841693,31.127527 a 0.49999998,0.50000002 0 0 1 0.96578,0.25878 l 6.093,10.553386 a 0.49999998,0.50000002 0 0 1 -0.25878,0.96578 l -10.553386,6.093 a 0.49999998,0.50000002 0 0 1 -0.96578,-0.25878 L 5.0295275,38.186307 a 0.49999998,0.50000002 0 0 1 0.2587799,-0.96578 l 10.5533856,-6.093 z" />
  <path
     style="fill:none;fill-rule:evenodd;stroke:#ff0000;stroke-width:0.00987778;stroke-linecap:round;stroke-linejoin:round;stroke-opacity:1;stroke-miterlimit:4;stroke-dasharray:none"
     inkscape:connector-curvature="0"
     id="path3565"
     vector-effect="non-scaling-stroke"
     d="m 41.864693,38.100527 a 0.49999998,0.50000002 0 0 1 0.96578,0.25878 l 6.093,10.553386 a 0.49999998,0.50000002 0 0 1 -0.25878,0.96578 l -10.553386,6.093 a 0.49999998,0.50000002 0 0 1 -0.96578,-0.25878 l -6.093,-10.553386 a 0.49999998,0.50000002 0 0 1 0.25878,-0.96578 l 10.553386,-6.093 z" />
  <path
     style="fill:none;fill-rule:evenodd;stroke:#ff0000;stroke-width:0.00987778;stroke-linecap:round;stroke-linejoin:round;stroke-opacity:1;stroke-miterlimit:4;stroke-dasharray:none"
     inkscape:connector-curvature="0"
     id="path3567"
     vector-effect="non-scaling-stroke"
     d="m 43.140693,59.360527 a 0.49999998,0.50000002 0 0 1 0.96578,0.25878 l 6.093,10.553386 a 0.49999998,0.50000002 0 0 1 -0.25878,0.96578 l -10.553386,6.093 a 0.49999998,0.50000002 0 0 1 -0.96578,-0.25878 l -6.093,-10.553386 a 0.49999998,0.50000002 0 0 1 0.25878,-0.96578 l 10.553386,-6.093 z" />
  <path
     style="fill:none;fill-rule:evenodd;stroke:#ff0000;stroke-width:0.00987778;stroke-linecap:round;stroke-linejoin:round;stroke-opacity:1;stroke-miterlimit:4;stroke-dasharray:none"
     inkscape:connector-curvature="0"
     id="path3569"
     vector-effect="non-scaling-stroke"
     d="m 136.568,103.675 a 0.5,0.5 0 0 1 0.707,0.707 l 0,12.186 a 0.5,0.5 0 0 1 -0.707,0.707 l -12.186,0 a 0.5,0.5 0 0 1 -0.707,-0.707 l 0,-12.186 a 0.5,0.5 0 0 1 0.707,-0.707 l 12.186,0 z" />
  <path
     style="fill:none;fill-rule:evenodd;stroke:#ff0000;stroke-width:0.00987778;stroke-linecap:round;stroke-linejoin:round;stroke-opacity:1;stroke-miterlimit:4;stroke-dasharray:none"
     inkscape:connector-curvature="0"
     id="path3571"
     vector-effect="non-scaling-stroke"
     d="m 155.618,103.675 a 0.5,0.5 0 0 1 0.707,0.707 l 0,12.186 a 0.5,0.5 0 0 1 -0.707,0.707 l -12.186,0 a 0.5,0.5 0 0 1 -0.707,-0.707 l 0,-12.186 a 0.5,0.5 0 0 1 0.707,-0.707 l 12.186,0 z" />
  <path
     style="fill:none;fill-rule:evenodd;stroke:#ff0000;stroke-width:0.00987778;stroke-linecap:round;stroke-linejoin:round;stroke-opacity:1;stroke-miterlimit:4;stroke-dasharray:none"
     inkscape:connector-curvature="0"
     id="path3573"
     vector-effect="non-scaling-stroke"
     d="m 136.568,84.625 a 0.5,0.5 0 0 1 0.707,0.707 l 0,12.186 a 0.5,0.5 0 0 1 -0.707,0.707 l -12.186,0 a 0.5,0.5 0 0 1 -0.707,-0.707 l 0,-12.186 a 0.5,0.5 0 0 1 0.707,-0.707 l 12.186,0 z" />
  <path
     style="fill:none;fill-rule:evenodd;stroke:#ff0000;stroke-width:0.00987778;stroke-linecap:round;stroke-linejoin:round;stroke-opacity:1;stroke-miterlimit:4;stroke-dasharray:none"
     inkscape:connector-curvature="0"
     id="path3575"
     vector-effect="non-scaling-stroke"
     d="m 155.618,84.625 a 0.5,0.5 0 0 1 0.707,0.707 l 0,12.186 a 0.5,0.5 0 0 1 -0.707,0.707 l -12.186,0 a 0.5,0.5 0 0 1 -0.707,-0.707 l 0,-12.186 a 0.5,0.5 0 0 1 0.707,-0.707 l 12.186,0 z" />
  <path
     style="fill:none;fill-rule:evenodd;stroke:#ff0000;stroke-width:0.00987778;stroke-linecap:round;stroke-linejoin:round;stroke-opacity:1;stroke-miterlimit:4;stroke-dasharray:none"
     inkscape:connector-curvature="0"
     id="path3577"
     vector-effect="non-scaling-stroke"
     d="m 117.518,89.387 a 0.5,0.5 0 0 1 0.707,0.707 l 0,12.186 a 0.5,0.5 0 0 1 -0.707,0.707 l -12.186,0 a 0.5,0.5 0 0 1 -0.707,-0.707 l 0,-12.186 a 0.5,0.5 0 0 1 0.707,-0.707 l 12.186,0 z" />
  <path
     style="fill:none;fill-rule:evenodd;stroke:#ff0000;stroke-width:0.00987778;stroke-linecap:round;stroke-linejoin:round;stroke-opacity:1;stroke-miterlimit:4;stroke-dasharray:none"
     inkscape:connector-curvature="0"
     id="path3579"
     vector-effect="non-scaling-stroke"
     d="m 174.668,89.387 a 0.5,0.5 0 0 1 0.707,0.707 l 0,12.186 a 0.5,0.5 0 0 1 -0.707,0.707 l -12.186,0 a 0.5,0.5 0 0 1 -0.707,-0.707 l 0,-12.186 a 0.5,0.5 0 0 1 0.707,-0.707 l 12.186,0 z" />
  <path
     style="fill:none;fill-rule:evenodd;stroke:#ff0000;stroke-width:0.00987778;stroke-linecap:round;stroke-linejoin:round;stroke-opacity:1;stroke-miterlimit:4;stroke-dasharray:none"
     inkscape:connector-curvature="0"
     id="path3581"
     vector-effect="non-scaling-stroke"
     d="m 127.043,65.575 a 0.5,0.5 0 0 1 0.707,0.707 l 0,12.186 a 0.5,0.5 0 0 1 -0.707,0.707 l -12.186,0 a 0.5,0.5 0 0 1 -0.707,-0.707 l 0,-12.186 a 0.5,0.5 0 0 1 0.707,-0.707 l 12.186,0 z" />
  <path
     style="fill:none;fill-rule:evenodd;stroke:#ff0000;stroke-width:0.00987778;stroke-linecap:round;stroke-linejoin:round;stroke-opacity:1;stroke-miterlimit:4;stroke-dasharray:none"
     inkscape:connector-curvature="0"
     id="path3583"
     vector-effect="non-scaling-stroke"
     d="m 165.143,65.575 a 0.5,0.5 0 0 1 0.707,0.707 l 0,12.186 a 0.5,0.5 0 0 1 -0.707,0.707 l -12.186,0 a 0.5,0.5 0 0 1 -0.707,-0.707 l 0,-12.186 a 0.5,0.5 0 0 1 0.707,-0.707 l 12.186,0 z" />
  <path
     style="fill:none;fill-rule:evenodd;stroke:#ff0000;stroke-width:0.00987778;stroke-linecap:round;stroke-linejoin:round;stroke-opacity:1;stroke-miterlimit:4;stroke-dasharray:none"
     inkscape:connector-curvature="0"
     id="path3585"
     vector-effect="non-scaling-stroke"
     d="m 146.093,65.575 a 0.5,0.5 0 0 1 0.707,0.707 l 0,12.186 a 0.5,0.5 0 0 1 -0.707,0.707 l -12.186,0 A 0.5,0.5 0 0 1 133.2,78.468 l 0,-12.186 a 0.5,0.5 0 0 1 0.707,-0.707 l 12.186,0 z" />
  <path
     style="fill:none;fill-rule:evenodd;stroke:#ff0000;stroke-width:0.00987778;stroke-linecap:round;stroke-linejoin:round;stroke-opacity:1;stroke-miterlimit:4;stroke-dasharray:none"
     inkscape:connector-curvature="0"
     id="path3587"
     vector-effect="non-scaling-stroke"
     d="m 107.993,70.337 a 0.5,0.5 0 0 1 0.707,0.707 l 0,12.186 a 0.5,0.5 0 0 1 -0.707,0.707 l -12.186,0 A 0.5,0.5 0 0 1 95.1,83.23 l 0,-12.186 a 0.5,0.5 0 0 1 0.707,-0.707 l 12.186,0 z" />
  <path
     style="fill:none;fill-rule:evenodd;stroke:#ff0000;stroke-width:0.00987778;stroke-linecap:round;stroke-linejoin:round;stroke-opacity:1;stroke-miterlimit:4;stroke-dasharray:none"
     inkscape:connector-curvature="0"
     id="path3589"
     vector-effect="non-scaling-stroke"
     d="m 184.193,70.337 a 0.5,0.5 0 0 1 0.707,0.707 l 0,12.186 a 0.5,0.5 0 0 1 -0.707,0.707 l -12.186,0 A 0.5,0.5 0 0 1 171.3,83.23 l 0,-12.186 a 0.5,0.5 0 0 1 0.707,-0.707 l 12.186,0 z" />
  <path
     style="fill:none;fill-rule:evenodd;stroke:#ff0000;stroke-width:0.00987778;stroke-linecap:round;stroke-linejoin:round;stroke-opacity:1;stroke-miterlimit:4;stroke-dasharray:none"
     inkscape:connector-curvature="0"
     id="path3591"
     vector-effect="non-scaling-stroke"
     d="m 88.943,65.575 a 0.5,0.5 0 0 1 0.707,0.707 l 0,12.186 a 0.5,0.5 0 0 1 -0.707,0.707 l -12.186,0 A 0.5,0.5 0 0 1 76.05,78.468 l 0,-12.186 a 0.5,0.5 0 0 1 0.707,-0.707 l 12.186,0 z" />
  <path
     style="fill:none;fill-rule:evenodd;stroke:#ff0000;stroke-width:0.00987778;stroke-linecap:round;stroke-linejoin:round;stroke-opacity:1;stroke-miterlimit:4;stroke-dasharray:none"
     inkscape:connector-curvature="0"
     id="path3593"
     vector-effect="non-scaling-stroke"
     d="m 203.243,65.575 a 0.5,0.5 0 0 1 0.707,0.707 l 0,12.186 a 0.5,0.5 0 0 1 -0.707,0.707 l -12.186,0 a 0.5,0.5 0 0 1 -0.707,-0.707 l 0,-12.186 a 0.5,0.5 0 0 1 0.707,-0.707 l 12.186,0 z" />
  <path
     style="fill:none;fill-rule:evenodd;stroke:#ff0000;stroke-width:0.00987778;stroke-linecap:round;stroke-linejoin:round;stroke-opacity:1;stroke-miterlimit:4;stroke-dasharray:none"
     inkscape:connector-curvature="0"
     id="path3595"
     vector-effect="non-scaling-stroke"
     d="m 69.893,65.575 a 0.5,0.5 0 0 1 0.707,0.707 l 0,12.186 a 0.5,0.5 0 0 1 -0.707,0.707 l -12.186,0 A 0.5,0.5 0 0 1 57,78.468 l 0,-12.186 a 0.5,0.5 0 0 1 0.707,-0.707 l 12.186,0 z" />
  <path
     style="fill:none;fill-rule:evenodd;stroke:#ff0000;stroke-width:0.00987778;stroke-linecap:round;stroke-linejoin:round;stroke-opacity:1;stroke-miterlimit:4;stroke-dasharray:none"
     inkscape:connector-curvature="0"
     id="path3597"
     vector-effect="non-scaling-stroke"
     d="M 222.293,65.575 A 0.5,0.5 0 0 1 223,66.282 l 0,12.186 a 0.5,0.5 0 0 1 -0.707,0.707 l -12.186,0 A 0.5,0.5 0 0 1 209.4,78.468 l 0,-12.186 a 0.5,0.5 0 0 1 0.707,-0.707 l 12.186,0 z" />
  <path
     style="fill:none;fill-rule:evenodd;stroke:#ff0000;stroke-width:0.00987778;stroke-linecap:round;stroke-linejoin:round;stroke-opacity:1;stroke-miterlimit:4;stroke-dasharray:none"
     inkscape:connector-curvature="0"
     id="path3599"
     vector-effect="non-scaling-stroke"
     d="m 127.043,46.525 a 0.5,0.5 0 0 1 0.707,0.707 l 0,12.186 a 0.5,0.5 0 0 1 -0.707,0.707 l -12.186,0 a 0.5,0.5 0 0 1 -0.707,-0.707 l 0,-12.186 a 0.5,0.5 0 0 1 0.707,-0.707 l 12.186,0 z" />
  <path
     style="fill:none;fill-rule:evenodd;stroke:#ff0000;stroke-width:0.00987778;stroke-linecap:round;stroke-linejoin:round;stroke-opacity:1;stroke-miterlimit:4;stroke-dasharray:none"
     inkscape:connector-curvature="0"
     id="path3601"
     vector-effect="non-scaling-stroke"
     d="m 165.143,46.525 a 0.5,0.5 0 0 1 0.707,0.707 l 0,12.186 a 0.5,0.5 0 0 1 -0.707,0.707 l -12.186,0 a 0.5,0.5 0 0 1 -0.707,-0.707 l 0,-12.186 a 0.5,0.5 0 0 1 0.707,-0.707 l 12.186,0 z" />
  <path
     style="fill:none;fill-rule:evenodd;stroke:#ff0000;stroke-width:0.00987778;stroke-linecap:round;stroke-linejoin:round;stroke-opacity:1;stroke-miterlimit:4;stroke-dasharray:none"
     inkscape:connector-curvature="0"
     id="path3603"
     vector-effect="non-scaling-stroke"
     d="m 146.093,46.525 a 0.5,0.5 0 0 1 0.707,0.707 l 0,12.186 a 0.5,0.5 0 0 1 -0.707,0.707 l -12.186,0 A 0.5,0.5 0 0 1 133.2,59.418 l 0,-12.186 a 0.5,0.5 0 0 1 0.707,-0.707 l 12.186,0 z" />
  <path
     style="fill:none;fill-rule:evenodd;stroke:#ff0000;stroke-width:0.00987778;stroke-linecap:round;stroke-linejoin:round;stroke-opacity:1;stroke-miterlimit:4;stroke-dasharray:none"
     inkscape:connector-curvature="0"
     id="path3605"
     vector-effect="non-scaling-stroke"
     d="m 107.993,51.287 a 0.5,0.5 0 0 1 0.707,0.707 l 0,12.186 a 0.5,0.5 0 0 1 -0.707,0.707 l -12.186,0 A 0.5,0.5 0 0 1 95.1,64.18 l 0,-12.186 a 0.5,0.5 0 0 1 0.707,-0.707 l 12.186,0 z" />
  <path
     style="fill:none;fill-rule:evenodd;stroke:#ff0000;stroke-width:0.00987778;stroke-linecap:round;stroke-linejoin:round;stroke-opacity:1;stroke-miterlimit:4;stroke-dasharray:none"
     inkscape:connector-curvature="0"
     id="path3607"
     vector-effect="non-scaling-stroke"
     d="m 184.193,51.287 a 0.5,0.5 0 0 1 0.707,0.707 l 0,12.186 a 0.5,0.5 0 0 1 -0.707,0.707 l -12.186,0 A 0.5,0.5 0 0 1 171.3,64.18 l 0,-12.186 a 0.5,0.5 0 0 1 0.707,-0.707 l 12.186,0 z" />
  <path
     style="fill:none;fill-rule:evenodd;stroke:#ff0000;stroke-width:0.00987778;stroke-linecap:round;stroke-linejoin:round;stroke-opacity:1;stroke-miterlimit:4;stroke-dasharray:none"
     inkscape:connector-curvature="0"
     id="path3609"
     vector-effect="non-scaling-stroke"
     d="m 88.943,46.525 a 0.5,0.5 0 0 1 0.707,0.707 l 0,12.186 a 0.5,0.5 0 0 1 -0.707,0.707 l -12.186,0 A 0.5,0.5 0 0 1 76.05,59.418 l 0,-12.186 a 0.5,0.5 0 0 1 0.707,-0.707 l 12.186,0 z" />
  <path
     style="fill:none;fill-rule:evenodd;stroke:#ff0000;stroke-width:0.00987778;stroke-linecap:round;stroke-linejoin:round;stroke-opacity:1;stroke-miterlimit:4;stroke-dasharray:none"
     inkscape:connector-curvature="0"
     id="path3611"
     vector-effect="non-scaling-stroke"
     d="m 203.243,46.525 a 0.5,0.5 0 0 1 0.707,0.707 l 0,12.186 a 0.5,0.5 0 0 1 -0.707,0.707 l -12.186,0 a 0.5,0.5 0 0 1 -0.707,-0.707 l 0,-12.186 a 0.5,0.5 0 0 1 0.707,-0.707 l 12.186,0 z" />
  <path
     style="fill:none;fill-rule:evenodd;stroke:#ff0000;stroke-width:0.00987778;stroke-linecap:round;stroke-linejoin:round;stroke-opacity:1;stroke-miterlimit:4;stroke-dasharray:none"
     inkscape:connector-curvature="0"
     id="path3613"
     vector-effect="non-scaling-stroke"
     d="m 69.893,46.525 a 0.5,0.5 0 0 1 0.707,0.707 l 0,12.186 a 0.5,0.5 0 0 1 -0.707,0.707 l -12.186,0 A 0.5,0.5 0 0 1 57,59.418 l 0,-12.186 a 0.5,0.5 0 0 1 0.707,-0.707 l 12.186,0 z" />
  <path
     style="fill:none;fill-rule:evenodd;stroke:#ff0000;stroke-width:0.00987778;stroke-linecap:round;stroke-linejoin:round;stroke-opacity:1;stroke-miterlimit:4;stroke-dasharray:none"
     inkscape:connector-curvature="0"
     id="path3615"
     vector-effect="non-scaling-stroke"
     d="M 222.293,46.525 A 0.5,0.5 0 0 1 223,47.232 l 0,12.186 a 0.5,0.5 0 0 1 -0.707,0.707 l -12.186,0 A 0.5,0.5 0 0 1 209.4,59.418 l 0,-12.186 a 0.5,0.5 0 0 1 0.707,-0.707 l 12.186,0 z" />
  <path
     style="fill:none;fill-rule:evenodd;stroke:#ff0000;stroke-width:0.00987778;stroke-linecap:round;stroke-linejoin:round;stroke-opacity:1;stroke-miterlimit:4;stroke-dasharray:none"
     inkscape:connector-curvature="0"
     id="path3617"
     vector-effect="non-scaling-stroke"
     d="m 127.043,27.475 a 0.5,0.5 0 0 1 0.707,0.707 l 0,12.186 a 0.5,0.5 0 0 1 -0.707,0.707 l -12.186,0 a 0.5,0.5 0 0 1 -0.707,-0.707 l 0,-12.186 a 0.5,0.5 0 0 1 0.707,-0.707 l 12.186,0 z" />
  <path
     style="fill:none;fill-rule:evenodd;stroke:#ff0000;stroke-width:0.00987778;stroke-linecap:round;stroke-linejoin:round;stroke-opacity:1;stroke-miterlimit:4;stroke-dasharray:none"
     inkscape:connector-curvature="0"
     id="path3619"
     vector-effect="non-scaling-stroke"
     d="m 165.143,27.475 a 0.5,0.5 0 0 1 0.707,0.707 l 0,12.186 a 0.5,0.5 0 0 1 -0.707,0.707 l -12.186,0 a 0.5,0.5 0 0 1 -0.707,-0.707 l 0,-12.186 a 0.5,0.5 0 0 1 0.707,-0.707 l 12.186,0 z" />
  <path
     style="fill:none;fill-rule:evenodd;stroke:#ff0000;stroke-width:0.00987778;stroke-linecap:round;stroke-linejoin:round;stroke-opacity:1;stroke-miterlimit:4;stroke-dasharray:none"
     inkscape:connector-curvature="0"
     id="path3621"
     vector-effect="non-scaling-stroke"
     d="m 146.093,27.475 a 0.5,0.5 0 0 1 0.707,0.707 l 0,12.186 a 0.5,0.5 0 0 1 -0.707,0.707 l -12.186,0 A 0.5,0.5 0 0 1 133.2,40.368 l 0,-12.186 a 0.5,0.5 0 0 1 0.707,-0.707 l 12.186,0 z" />
  <path
     style="fill:none;fill-rule:evenodd;stroke:#ff0000;stroke-width:0.00987778;stroke-linecap:round;stroke-linejoin:round;stroke-opacity:1;stroke-miterlimit:4;stroke-dasharray:none"
     inkscape:connector-curvature="0"
     id="path3623"
     vector-effect="non-scaling-stroke"
     d="m 107.993,32.237 a 0.5,0.5 0 0 1 0.707,0.707 l 0,12.186 a 0.5,0.5 0 0 1 -0.707,0.707 l -12.186,0 A 0.5,0.5 0 0 1 95.1,45.13 l 0,-12.186 a 0.5,0.5 0 0 1 0.707,-0.707 l 12.186,0 z" />
  <path
     style="fill:none;fill-rule:evenodd;stroke:#ff0000;stroke-width:0.00987778;stroke-linecap:round;stroke-linejoin:round;stroke-opacity:1;stroke-miterlimit:4;stroke-dasharray:none"
     inkscape:connector-curvature="0"
     id="path3625"
     vector-effect="non-scaling-stroke"
     d="m 184.193,32.237 a 0.5,0.5 0 0 1 0.707,0.707 l 0,12.186 a 0.5,0.5 0 0 1 -0.707,0.707 l -12.186,0 A 0.5,0.5 0 0 1 171.3,45.13 l 0,-12.186 a 0.5,0.5 0 0 1 0.707,-0.707 l 12.186,0 z" />
  <path
     style="fill:none;fill-rule:evenodd;stroke:#ff0000;stroke-width:0.00987778;stroke-linecap:round;stroke-linejoin:round;stroke-opacity:1;stroke-miterlimit:4;stroke-dasharray:none"
     inkscape:connector-curvature="0"
     id="path3627"
     vector-effect="non-scaling-stroke"
     d="m 88.943,27.475 a 0.5,0.5 0 0 1 0.707,0.707 l 0,12.186 a 0.5,0.5 0 0 1 -0.707,0.707 l -12.186,0 A 0.5,0.5 0 0 1 76.05,40.368 l 0,-12.186 a 0.5,0.5 0 0 1 0.707,-0.707 l 12.186,0 z" />
  <path
     style="fill:none;fill-rule:evenodd;stroke:#ff0000;stroke-width:0.00987778;stroke-linecap:round;stroke-linejoin:round;stroke-opacity:1;stroke-miterlimit:4;stroke-dasharray:none"
     inkscape:connector-curvature="0"
     id="path3629"
     vector-effect="non-scaling-stroke"
     d="m 203.243,27.475 a 0.5,0.5 0 0 1 0.707,0.707 l 0,12.186 a 0.5,0.5 0 0 1 -0.707,0.707 l -12.186,0 a 0.5,0.5 0 0 1 -0.707,-0.707 l 0,-12.186 a 0.5,0.5 0 0 1 0.707,-0.707 l 12.186,0 z" />
  <path
     style="fill:none;fill-rule:evenodd;stroke:#ff0000;stroke-width:0.00987778;stroke-linecap:round;stroke-linejoin:round;stroke-opacity:1;stroke-miterlimit:4;stroke-dasharray:none"
     inkscape:connector-curvature="0"
     id="path3631"
     vector-effect="non-scaling-stroke"
     d="m 69.893,27.475 a 0.5,0.5 0 0 1 0.707,0.707 l 0,12.186 a 0.5,0.5 0 0 1 -0.707,0.707 l -12.186,0 A 0.5,0.5 0 0 1 57,40.368 l 0,-12.186 a 0.5,0.5 0 0 1 0.707,-0.707 l 12.186,0 z" />
  <path
     style="fill:none;fill-rule:evenodd;stroke:#ff0000;stroke-width:0.00987778;stroke-linecap:round;stroke-linejoin:round;stroke-opacity:1;stroke-miterlimit:4;stroke-dasharray:none"
     inkscape:connector-curvature="0"
     id="path3633"
     vector-effect="non-scaling-stroke"
     d="M 222.293,27.475 A 0.5,0.5 0 0 1 223,28.182 l 0,12.186 a 0.5,0.5 0 0 1 -0.707,0.707 l -12.186,0 A 0.5,0.5 0 0 1 209.4,40.368 l 0,-12.186 a 0.5,0.5 0 0 1 0.707,-0.707 l 12.186,0 z" />
  <path
     style="fill:none;fill-rule:evenodd;stroke:#ff0000;stroke-width:0.00987778;stroke-linecap:round;stroke-linejoin:round;stroke-opacity:1;stroke-miterlimit:4;stroke-dasharray:none"
     inkscape:connector-curvature="0"
     id="path3635"
     vector-effect="non-scaling-stroke"
     d="m 127.043,8.425 a 0.5,0.5 0 0 1 0.707,0.707 l 0,12.186 a 0.5,0.5 0 0 1 -0.707,0.707 l -12.186,0 a 0.5,0.5 0 0 1 -0.707,-0.707 l 0,-12.186 a 0.5,0.5 0 0 1 0.707,-0.707 l 12.186,0 z" />
  <path
     style="fill:none;fill-rule:evenodd;stroke:#ff0000;stroke-width:0.00987778;stroke-linecap:round;stroke-linejoin:round;stroke-opacity:1;stroke-miterlimit:4;stroke-dasharray:none"
     inkscape:connector-curvature="0"
     id="path3637"
     vector-effect="non-scaling-stroke"
     d="m 165.143,8.425 a 0.5,0.5 0 0 1 0.707,0.707 l 0,12.186 a 0.5,0.5 0 0 1 -0.707,0.707 l -12.186,0 a 0.5,0.5 0 0 1 -0.707,-0.707 l 0,-12.186 a 0.5,0.5 0 0 1 0.707,-0.707 l 12.186,0 z" />
  <path
     style="fill:none;fill-rule:evenodd;stroke:#ff0000;stroke-width:0.00987778;stroke-linecap:round;stroke-linejoin:round;stroke-opacity:1;stroke-miterlimit:4;stroke-dasharray:none"
     inkscape:connector-curvature="0"
     id="path3639"
     vector-effect="non-scaling-stroke"
     d="m 146.093,8.425 a 0.5,0.5 0 0 1 0.707,0.707 l 0,12.186 a 0.5,0.5 0 0 1 -0.707,0.707 l -12.186,0 A 0.5,0.5 0 0 1 133.2,21.318 l 0,-12.186 a 0.5,0.5 0 0 1 0.707,-0.707 l 12.186,0 z" />
  <path
     style="fill:none;fill-rule:evenodd;stroke:#ff0000;stroke-width:0.00987778;stroke-linecap:round;stroke-linejoin:round;stroke-opacity:1;stroke-miterlimit:4;stroke-dasharray:none"
     inkscape:connector-curvature="0"
     id="path3641"
     vector-effect="non-scaling-stroke"
     d="m 107.993,13.187 a 0.5,0.5 0 0 1 0.707,0.707 l 0,12.186 a 0.5,0.5 0 0 1 -0.707,0.707 l -12.186,0 A 0.5,0.5 0 0 1 95.1,26.08 l 0,-12.186 a 0.5,0.5 0 0 1 0.707,-0.707 l 12.186,0 z" />
  <path
     style="fill:none;fill-rule:evenodd;stroke:#ff0000;stroke-width:0.00987778;stroke-linecap:round;stroke-linejoin:round;stroke-opacity:1;stroke-miterlimit:4;stroke-dasharray:none"
     inkscape:connector-curvature="0"
     id="path3643"
     vector-effect="non-scaling-stroke"
     d="m 184.193,13.187 a 0.5,0.5 0 0 1 0.707,0.707 l 0,12.186 a 0.5,0.5 0 0 1 -0.707,0.707 l -12.186,0 A 0.5,0.5 0 0 1 171.3,26.08 l 0,-12.186 a 0.5,0.5 0 0 1 0.707,-0.707 l 12.186,0 z" />
  <path
     style="fill:none;fill-rule:evenodd;stroke:#ff0000;stroke-width:0.00987778;stroke-linecap:round;stroke-linejoin:round;stroke-opacity:1;stroke-miterlimit:4;stroke-dasharray:none"
     inkscape:connector-curvature="0"
     id="path3645"
     vector-effect="non-scaling-stroke"
     d="m 88.943,8.425 a 0.5,0.5 0 0 1 0.707,0.707 l 0,12.186 a 0.5,0.5 0 0 1 -0.707,0.707 l -12.186,0 A 0.5,0.5 0 0 1 76.05,21.318 l 0,-12.186 a 0.5,0.5 0 0 1 0.707,-0.707 l 12.186,0 z" />
  <path
     style="fill:none;fill-rule:evenodd;stroke:#ff0000;stroke-width:0.00987778;stroke-linecap:round;stroke-linejoin:round;stroke-opacity:1;stroke-miterlimit:4;stroke-dasharray:none"
     inkscape:connector-curvature="0"
     id="path3647"
     vector-effect="non-scaling-stroke"
     d="m 203.243,8.425 a 0.5,0.5 0 0 1 0.707,0.707 l 0,12.186 a 0.5,0.5 0 0 1 -0.707,0.707 l -12.186,0 a 0.5,0.5 0 0 1 -0.707,-0.707 l 0,-12.186 a 0.5,0.5 0 0 1 0.707,-0.707 l 12.186,0 z" />
  <path
     style="fill:none;fill-rule:evenodd;stroke:#ff0000;stroke-width:0.00987778;stroke-linecap:round;stroke-linejoin:round;stroke-opacity:1;stroke-miterlimit:4;stroke-dasharray:none"
     inkscape:connector-curvature="0"
     id="path3649"
     vector-effect="non-scaling-stroke"
     d="M 69.893,8.425 A 0.5,0.5 0 0 1 70.6,9.132 l 0,12.186 a 0.5,0.5 0 0 1 -0.707,0.707 l -12.186,0 A 0.5,0.5 0 0 1 57,21.318 L 57,9.132 a 0.5,0.5 0 0 1 0.707,-0.707 l 12.186,0 z" />
  <path
     style="fill:none;fill-rule:evenodd;stroke:#ff0000;stroke-width:0.00987778;stroke-linecap:round;stroke-linejoin:round;stroke-opacity:1;stroke-miterlimit:4;stroke-dasharray:none"
     inkscape:connector-curvature="0"
     id="path3651"
     vector-effect="non-scaling-stroke"
     d="M 222.293,8.425 A 0.5,0.5 0 0 1 223,9.132 l 0,12.186 a 0.5,0.5 0 0 1 -0.707,0.707 l -12.186,0 A 0.5,0.5 0 0 1 209.4,21.318 l 0,-12.186 a 0.5,0.5 0 0 1 0.707,-0.707 l 12.186,0 z" />
  <circle
     style="fill:none;fill-rule:evenodd;stroke:#ff0000;stroke-width:0.00987778;stroke-linecap:round;stroke-linejoin:round;stroke-opacity:1;stroke-miterlimit:4;stroke-dasharray:none"
     id="circle3653"
     vector-effect="non-scaling-stroke"
     r="1.5"
     cy="-17.224998"
     cx="44.75"
     transform="scale(1,-1)" />
  <circle
     style="fill:none;fill-rule:evenodd;stroke:#ff0000;stroke-width:0.00987778;stroke-linecap:round;stroke-linejoin:round;stroke-opacity:1;stroke-miterlimit:4;stroke-dasharray:none"
     id="circle3655"
     vector-effect="non-scaling-stroke"
     r="1.5"
     cy="-17.224998"
     cx="235.25"
     transform="scale(1,-1)" />
  <circle
     style="fill:none;fill-rule:evenodd;stroke:#ff0000;stroke-width:0.00987778;stroke-linecap:round;stroke-linejoin:round;stroke-opacity:1;stroke-miterlimit:4;stroke-dasharray:none"
     id="circle3657"
     vector-effect="non-scaling-stroke"
     r="1.5"
     cy="-93.425003"
     cx="82.849998"
     transform="scale(1,-1)" />
  <circle
     style="fill:none;fill-rule:evenodd;stroke:#ff0000;stroke-width:0.00987778;stroke-linecap:round;stroke-linejoin:round;stroke-opacity:1;stroke-miterlimit:4;stroke-dasharray:none"
     id="circle3659"
     vector-effect="non-scaling-stroke"
     r="1.5"
     cy="-93.425003"
     cx="197.14999"
     transform="scale(1,-1)" />
  <circle
     style="fill:none;fill-rule:evenodd;stroke:#ff0000;stroke-width:0.00987778;stroke-linecap:round;stroke-linejoin:round;stroke-opacity:1;stroke-miterlimit:4;stroke-dasharray:none"
     id="circle3661"
     vector-effect="non-scaling-stroke"
     r="1.5"
     cy="-17.224998"
     cx="6.6500001"
     transform="scale(1,-1)" />
  <circle
     style="fill:none;fill-rule:evenodd;stroke:#ff0000;stroke-width:0.00987778;stroke-linecap:round;stroke-linejoin:round;stroke-opacity:1;stroke-miterlimit:4;stroke-dasharray:none"
     id="circle3663"
     vector-effect="non-scaling-stroke"
     r="1.5"
     cy="-17.224998"
     cx="273.35001"
     transform="scale(1,-1)" />
  <circle
     style="fill:none;fill-rule:evenodd;stroke:#ff0000;stroke-width:0.00987778;stroke-linecap:round;stroke-linejoin:round;stroke-opacity:1;stroke-miterlimit:4;stroke-dasharray:none"
     id="circle3665"
     vector-effect="non-scaling-stroke"
     r="1.5"
     cy="-93.425003"
     cx="6.6500001"
     transform="scale(1,-1)" />
  <circle
     style="fill:none;fill-rule:evenodd;stroke:#ff0000;stroke-width:0.00987778;stroke-linecap:round;stroke-linejoin:round;stroke-opacity:1;stroke-miterlimit:4;stroke-dasharray:none"
     id="circle3667"
     vector-effect="non-scaling-stroke"
     r="1.5"
     cy="-93.425003"
     cx="273.35001"
     transform="scale(1,-1)" />
</svg>
