<?xml version="1.0" encoding="UTF-8" standalone="no"?>
<svg
   xmlns:dc="http://purl.org/dc/elements/1.1/"
   xmlns:cc="http://creativecommons.org/ns#"
   xmlns:rdf="http://www.w3.org/1999/02/22-rdf-syntax-ns#"
   xmlns:svg="http://www.w3.org/2000/svg"
   xmlns="http://www.w3.org/2000/svg"
   xmlns:sodipodi="http://sodipodi.sourceforge.net/DTD/sodipodi-0.dtd"
   xmlns:inkscape="http://www.inkscape.org/namespaces/inkscape"
   width="280.000mm"
   height="122.000mm"
   version="1.1"
   viewBox="0 0 280.000 122.000"
   id="svg3472"
   inkscape:version="0.91 r13725"
   sodipodi:docname="kerf_guess.svg">
  <metadata
     id="metadata3516">
    <rdf:RDF>
      <cc:Work
         rdf:about="">
        <dc:format>image/svg+xml</dc:format>
        <dc:type
           rdf:resource="http://purl.org/dc/dcmitype/StillImage" />
      </cc:Work>
    </rdf:RDF>
  </metadata>
  <sodipodi:namedview
     pagecolor="#ffffff"
     bordercolor="#666666"
     borderopacity="1"
     objecttolerance="10"
     gridtolerance="10"
     guidetolerance="10"
     inkscape:pageopacity="0"
     inkscape:pageshadow="2"
     inkscape:window-width="1440"
     inkscape:window-height="808"
     id="namedview3514"
     showgrid="false"
     inkscape:zoom="1.8046038"
     inkscape:cx="285.34973"
     inkscape:cy="166.33601"
     inkscape:window-x="0"
     inkscape:window-y="1"
     inkscape:window-maximized="1"
     inkscape:current-layer="svg3472" />
  <desc
     id="desc3474">Ce schéma a été créé avec le Designer de Face Avant en exportant le fichier 'kerf_guess'.</desc>
  <defs
     id="defs3476">
    <pattern
       id="revside-fill"
       x="1"
       y="1"
       width="1.5"
       height="1.5"
       patternUnits="userSpaceOnUse">
      <line
         x1="0"
         y1="0"
         x2="1"
         y2="1"
         style="stroke-width:0.2; stroke:black; stroke-dasharray:none;"
         id="line3479" />
      <line
         x1="0"
         y1="1"
         x2="1"
         y2="0"
         style="stroke-width:0.2; stroke:black; stroke-dasharray:none;"
         id="line3481" />
    </pattern>
    <pattern
       id="revside-fill-e0e0e0"
       x="1"
       y="1"
       width="1.5"
       height="1.5"
       patternUnits="userSpaceOnUse">
      <line
         x1="0"
         y1="0"
         x2="1.5"
         y2="1.5"
         style="stroke-width:0.2; stroke:#e0e0e0; stroke-dasharray:none;"
         id="line3484" />
      <line
         x1="0"
         y1="1.5"
         x2="1.5"
         y2="0"
         style="stroke-width:0.2; stroke:#e0e0e0; stroke-dasharray:none;"
         id="line3486" />
    </pattern>
  </defs>
  <path
     style="fill:none;fill-rule:evenodd;stroke:#ff0000;stroke-width:0.01;stroke-linecap:round;stroke-linejoin:round;stroke-opacity:1;fill-opacity:1;stroke-miterlimit:4;stroke-dasharray:none"
     inkscape:connector-curvature="0"
     id="path3492"
     vector-effect="non-scaling-stroke"
     d="m 127.243,103.475 a 0.5,0.5 0 0 1 0.707,0.707 l 0,12.586 a 0.5,0.5 0 0 1 -0.707,0.707 l -12.586,0 a 0.5,0.5 0 0 1 -0.707,-0.707 l 0,-12.586 a 0.5,0.5 0 0 1 0.707,-0.707 l 12.586,0 z" />
  <path
     style="fill:none;fill-rule:evenodd;stroke:#ff0000;stroke-width:0.01;stroke-linecap:round;stroke-linejoin:round;stroke-opacity:1;fill-opacity:1;stroke-miterlimit:4;stroke-dasharray:none"
     inkscape:connector-curvature="0"
     id="path3494"
     vector-effect="non-scaling-stroke"
     d="m 108.143,103.525 a 0.5,0.5 0 0 1 0.707,0.707 l 0,12.486 a 0.5,0.5 0 0 1 -0.707,0.707 l -12.486,0 a 0.5,0.5 0 0 1 -0.707,-0.707 l 0,-12.486 a 0.5,0.5 0 0 1 0.707,-0.707 l 12.486,0 z" />
  <path
     style="fill:none;fill-rule:evenodd;stroke:#ff0000;stroke-width:0.01;stroke-linecap:round;stroke-linejoin:round;stroke-opacity:1;fill-opacity:1;stroke-miterlimit:4;stroke-dasharray:none"
     inkscape:connector-curvature="0"
     id="path3496"
     vector-effect="non-scaling-stroke"
     d="m 89.043,103.575 a 0.5,0.5 0 0 1 0.707,0.707 l 0,12.386 a 0.5,0.5 0 0 1 -0.707,0.707 l -12.386,0 a 0.5,0.5 0 0 1 -0.707,-0.707 l 0,-12.386 a 0.5,0.5 0 0 1 0.707,-0.707 l 12.386,0 z" />
  <path
     style="fill:none;fill-rule:evenodd;stroke:#ff0000;stroke-width:0.01;stroke-linecap:round;stroke-linejoin:round;stroke-opacity:1;fill-opacity:1;stroke-miterlimit:4;stroke-dasharray:none"
     inkscape:connector-curvature="0"
     id="path3498"
     vector-effect="non-scaling-stroke"
     d="m 69.943,103.625 a 0.5,0.5 0 0 1 0.707,0.707 l 0,12.286 a 0.5,0.5 0 0 1 -0.707,0.707 l -12.286,0 a 0.5,0.5 0 0 1 -0.707,-0.707 l 0,-12.286 a 0.5,0.5 0 0 1 0.707,-0.707 l 12.286,0 z" />
  <path
     style="fill:none;fill-rule:evenodd;stroke:#ff0000;stroke-width:0.01;stroke-linecap:round;stroke-linejoin:round;stroke-opacity:1;fill-opacity:1;stroke-miterlimit:4;stroke-dasharray:none"
     inkscape:connector-curvature="0"
     id="path3500"
     vector-effect="non-scaling-stroke"
     d="m 50.843,103.675 a 0.5,0.5 0 0 1 0.707,0.707 l 0,12.186 a 0.5,0.5 0 0 1 -0.707,0.707 l -12.186,0 a 0.5,0.5 0 0 1 -0.707,-0.707 l 0,-12.186 a 0.5,0.5 0 0 1 0.707,-0.707 l 12.186,0 z" />
  <path
     style="fill:none;fill-rule:evenodd;stroke:#ff0000;stroke-width:0.01;stroke-linecap:round;stroke-linejoin:round;stroke-opacity:1;fill-opacity:1;stroke-miterlimit:4;stroke-dasharray:none"
     inkscape:connector-curvature="0"
     id="path3502"
     vector-effect="non-scaling-stroke"
     d="m 165.318,103.5 a 0.5,0.5 0 0 1 0.707,0.707 l 0,12.536 a 0.5,0.5 0 0 1 -0.707,0.707 l -12.536,0 a 0.5,0.5 0 0 1 -0.707,-0.707 l 0,-12.536 a 0.5,0.5 0 0 1 0.707,-0.707 l 12.536,0 z" />
  <path
     style="fill:none;fill-rule:evenodd;stroke:#ff0000;stroke-width:0.01;stroke-linecap:round;stroke-linejoin:round;stroke-opacity:1;fill-opacity:1;stroke-miterlimit:4;stroke-dasharray:none"
     inkscape:connector-curvature="0"
     id="path3504"
     vector-effect="non-scaling-stroke"
     d="m 184.318,103.55 a 0.5,0.5 0 0 1 0.707,0.707 l 0,12.436 a 0.5,0.5 0 0 1 -0.707,0.707 l -12.436,0 a 0.5,0.5 0 0 1 -0.707,-0.707 l 0,-12.436 a 0.5,0.5 0 0 1 0.707,-0.707 l 12.436,0 z" />
  <path
     style="fill:none;fill-rule:evenodd;stroke:#ff0000;stroke-width:0.01;stroke-linecap:round;stroke-linejoin:round;stroke-opacity:1;fill-opacity:1;stroke-miterlimit:4;stroke-dasharray:none"
     inkscape:connector-curvature="0"
     id="path3506"
     vector-effect="non-scaling-stroke"
     d="m 203.318,103.6 a 0.5,0.5 0 0 1 0.707,0.707 l 0,12.336 a 0.5,0.5 0 0 1 -0.707,0.707 l -12.336,0 a 0.5,0.5 0 0 1 -0.707,-0.707 l 0,-12.336 a 0.5,0.5 0 0 1 0.707,-0.707 l 12.336,0 z" />
  <path
     style="fill:none;fill-rule:evenodd;stroke:#ff0000;stroke-width:0.01;stroke-linecap:round;stroke-linejoin:round;stroke-opacity:1;fill-opacity:1;stroke-miterlimit:4;stroke-dasharray:none"
     inkscape:connector-curvature="0"
     id="path3508"
     vector-effect="non-scaling-stroke"
     d="m 222.318,103.65 a 0.5,0.5 0 0 1 0.707,0.707 l 0,12.236 a 0.5,0.5 0 0 1 -0.707,0.707 l -12.236,0 a 0.5,0.5 0 0 1 -0.707,-0.707 l 0,-12.236 a 0.5,0.5 0 0 1 0.707,-0.707 l 12.236,0 z" />
  <path
     style="fill:none;fill-rule:evenodd;stroke:#ff0000;stroke-width:0.01;stroke-linecap:round;stroke-linejoin:round;stroke-opacity:1;fill-opacity:1;stroke-miterlimit:4;stroke-dasharray:none"
     inkscape:connector-curvature="0"
     id="path3510"
     vector-effect="non-scaling-stroke"
     d="m 241.318,103.7 a 0.5,0.5 0 0 1 0.707,0.707 l 0,12.136 a 0.5,0.5 0 0 1 -0.707,0.707 l -12.136,0 a 0.5,0.5 0 0 1 -0.707,-0.707 l 0,-12.136 a 0.5,0.5 0 0 1 0.707,-0.707 l 12.136,0 z" />
  <path
     style="fill:none;fill-rule:evenodd;stroke:#00ff00;stroke-width:0.01;stroke-linecap:round;stroke-linejoin:round;stroke-opacity:1;stroke-miterlimit:4;stroke-dasharray:none"
     inkscape:connector-curvature="0"
     id="path3512"
     vector-effect="non-scaling-stroke"
     d="M 280,0 0,0 l 0,0 0,122 0,0 280,0 0,0 0,-122 0,0" />
</svg>
